<?xml version="1.0" encoding="UTF-8" standalone="no"?>
<!-- Created with Inkscape (http://www.inkscape.org/) -->

<svg
   width="316.40781mm"
   height="18.745199mm"
   viewBox="0 0 316.40781 18.745199"
   version="1.1"
   id="svg5"
   inkscape:version="1.2 (dc2aedaf03, 2022-05-15)"
   sodipodi:docname="drawing-1.svg"
   xmlns:inkscape="http://www.inkscape.org/namespaces/inkscape"
   xmlns:sodipodi="http://sodipodi.sourceforge.net/DTD/sodipodi-0.dtd"
   xmlns="http://www.w3.org/2000/svg"
   xmlns:svg="http://www.w3.org/2000/svg">
  <sodipodi:namedview
     id="namedview7"
     pagecolor="#ffffff"
     bordercolor="#000000"
     borderopacity="0.25"
     inkscape:showpageshadow="2"
     inkscape:pageopacity="0.0"
     inkscape:pagecheckerboard="0"
     inkscape:deskcolor="#d1d1d1"
     inkscape:document-units="mm"
     showgrid="false"
     inkscape:zoom="0.54425795"
     inkscape:cx="582.44441"
     inkscape:cy="166.28145"
     inkscape:window-width="1920"
     inkscape:window-height="1051"
     inkscape:window-x="-9"
     inkscape:window-y="-9"
     inkscape:window-maximized="1"
     inkscape:current-layer="layer1" />
  <defs
     id="defs2" />
  <g
     inkscape:label="Layer 1"
     inkscape:groupmode="layer"
     id="layer1"
     transform="translate(59.962519,-100.32522)">
    <g
       aria-label="How Does the Web Work?"
       id="text186"
       style="font-weight:600;font-size:25.4px;font-family:Geist;-inkscape-font-specification:'Geist Semi-Bold';text-align:center;letter-spacing:0px;text-anchor:middle;opacity:0.9;fill:#0ea5e9;stroke-width:0.111;stroke-linecap:round;stroke-linejoin:round">
      <path
         d="m -59.962519,118.76562 h 3.8608 v -7.4422 h 6.8326 v 7.4422 h 3.8608 v -18.034 h -3.8608 v 7.3406 h -6.8326 v -7.3406 h -3.8608 z"
         style="font-weight:bold;-inkscape-font-specification:'Geist Bold';fill:#000000"
         id="path337" />
      <path
         d="m -35.730894,119.07042 c 4.1656,0 6.908799,-2.794 6.908799,-7.112 0,-4.2926 -2.743199,-7.112 -6.908799,-7.112 -4.1656,0 -6.9088,2.8194 -6.9088,7.112 0,4.318 2.7432,7.112 6.9088,7.112 z m 0,-2.921 c -1.905,0 -2.9972,-1.5494 -2.9972,-4.191 0,-2.6416 1.0922,-4.191 2.9972,-4.191 1.905,0 2.9718,1.5494 2.9718,4.191 0,2.6416 -1.0668,4.191 -2.9718,4.191 z"
         style="font-weight:bold;-inkscape-font-specification:'Geist Bold';fill:#000000"
         id="path339" />
      <path
         d="m -23.970686,118.76562 h 3.683 l 2.5146,-8.509 2.5146,8.509 h 3.7084 l 4.0385995,-13.6144 h -3.8353995 l -2.3622,9.2202 -2.5146,-9.2202 h -3.1242 l -2.4892,9.2202 -2.3622,-9.2202 h -3.8354 z"
         style="font-weight:bold;-inkscape-font-specification:'Geist Bold';fill:#000000"
         id="path341" />
      <path
         d="M 0.69274324,118.76562 H 7.0681431 c 5.7403999,0 8.9661999,-3.2258 8.9661999,-8.9916 0,-5.7912 -3.2766,-9.0424 -9.1185999,-9.0424 H 0.69274324 Z m 6.22299986,-3.2512 H 4.5535432 v -11.5316 h 2.3621999 c 3.4797999,0 5.1307999,1.8542 5.1307999,5.7658 0,3.9116 -1.651,5.7658 -5.1307999,5.7658 z"
         style="font-weight:bold;-inkscape-font-specification:'Geist Bold';fill:#000000"
         id="path343" />
      <path
         d="m 24.949752,119.07042 c 4.1656,0 6.9088,-2.794 6.9088,-7.112 0,-4.2926 -2.7432,-7.112 -6.9088,-7.112 -4.165599,0 -6.908799,2.8194 -6.908799,7.112 0,4.318 2.7432,7.112 6.908799,7.112 z m 0,-2.921 c -1.905,0 -2.997199,-1.5494 -2.997199,-4.191 0,-2.6416 1.092199,-4.191 2.997199,-4.191 1.905,0 2.9718,1.5494 2.9718,4.191 0,2.6416 -1.0668,4.191 -2.9718,4.191 z"
         style="font-weight:bold;-inkscape-font-specification:'Geist Bold';fill:#000000"
         id="path345" />
      <path
         d="m 40.494556,119.07042 c 3.2766,0 5.715,-1.6002 6.4516,-4.318 l -3.8354,-0.2286 c -0.381,1.1176 -1.27,1.651 -2.54,1.651 -1.778,0 -2.921,-1.0414 -2.9972,-3.2004 h 9.5504 v -0.762 c 0,-4.572 -2.6162,-7.366 -6.6548,-7.366 -4.1402,0 -6.832599,2.8194 -6.832599,7.112 0,4.2926 2.692399,7.112 6.857999,7.112 z m 2.7432,-8.4328 h -5.6642 c 0.2032,-1.8796 1.2954,-2.9718 2.8956,-2.9718 1.5748,0 2.667,0.9906 2.7686,2.9718 z"
         style="font-weight:bold;-inkscape-font-specification:'Geist Bold';fill:#000000"
         id="path347" />
      <path
         d="m 55.429753,119.07042 c 3.733799,0 6.095999,-1.4732 6.095999,-4.1148 0,-2.3622 -1.4732,-3.5814 -5.841999,-4.2164 -1.8796,-0.2794 -2.54,-0.6858 -2.54,-1.6764 0,-0.9144 0.7366,-1.524 2.0828,-1.524 1.3716,0 2.2098,0.8128 2.3876,2.1336 l 3.809999,-0.1524 c -0.3302,-2.7178 -2.3114,-4.6736 -6.146799,-4.6736 -4.0386,0 -6.0452,1.7526 -6.0452,4.3688 0,2.3622 1.2954,3.4798 5.6134,4.191 2.3114,0.381 2.7686,0.7874 2.7686,1.6256 0,0.9144 -0.8128,1.3462 -2.159,1.3462 -1.651,0 -2.4638,-0.7366 -2.6924,-2.032 l -3.8608,0.127 c 0.2032,2.667 2.3114,4.5974 6.5278,4.5974 z"
         style="font-weight:bold;-inkscape-font-specification:'Geist Bold';fill:#000000"
         id="path349" />
      <path
         d="m 75.622785,118.76562 h 3.302 v -2.8448 h -1.905 c -1.1176,0 -1.6764,-0.381 -1.6764,-1.7018 v -6.223 h 3.5814 v -2.8448 h -3.5814 v -3.2004 h -3.81 v 3.2004 h -2.1844 v 2.8448 h 2.1844 v 6.6802 c 0,2.8448 1.27,4.0894 4.0894,4.0894 z"
         style="font-weight:bold;-inkscape-font-specification:'Geist Bold';fill:#000000"
         id="path351" />
      <path
         d="m 81.337806,118.76562 h 3.81 v -7.747 c 0,-2.0574 0.9144,-3.1496 2.4892,-3.1496 1.4732,0 2.0574,1.0414 2.0574,3.048 v 7.8486 h 3.81 v -8.763 c 0,-3.0226 -1.5494,-5.1562 -4.5974,-5.1562 -1.6256,0 -3.0226,0.635 -3.7592,1.9812 v -6.096 h -3.81 z"
         style="font-weight:bold;-inkscape-font-specification:'Geist Bold';fill:#000000"
         id="path353" />
      <path
         d="m 102.69918,119.07042 c 3.2766,0 5.715,-1.6002 6.4516,-4.318 l -3.8354,-0.2286 c -0.381,1.1176 -1.27,1.651 -2.54,1.651 -1.778,0 -2.920996,-1.0414 -2.997196,-3.2004 h 9.550396 v -0.762 c 0,-4.572 -2.6162,-7.366 -6.6548,-7.366 -4.140196,0 -6.832595,2.8194 -6.832595,7.112 0,4.2926 2.692399,7.112 6.857995,7.112 z m 2.7432,-8.4328 h -5.664196 c 0.2032,-1.8796 1.295396,-2.9718 2.895596,-2.9718 1.5748,0 2.667,0.9906 2.7686,2.9718 z"
         style="font-weight:bold;-inkscape-font-specification:'Geist Bold';fill:#000000"
         id="path355" />
      <path
         d="m 121.5968,118.76562 h 4.1402 l 2.9464,-11.5316 2.9464,11.5316 h 4.1402 l 4.8768,-18.034 h -4.064 l -3.0734,12.7 -3.1242,-12.7 h -3.3782 l -3.1496,12.7 -3.0988,-12.7 h -4.0132 z"
         style="font-weight:bold;-inkscape-font-specification:'Geist Bold';fill:#000000"
         id="path357" />
      <path
         d="m 147.37776,119.07042 c 3.2766,0 5.715,-1.6002 6.4516,-4.318 l -3.8354,-0.2286 c -0.381,1.1176 -1.27,1.651 -2.54,1.651 -1.778,0 -2.921,-1.0414 -2.9972,-3.2004 h 9.5504 v -0.762 c 0,-4.572 -2.6162,-7.366 -6.6548,-7.366 -4.1402,0 -6.8326,2.8194 -6.8326,7.112 0,4.2926 2.6924,7.112 6.858,7.112 z m 2.7432,-8.4328 h -5.6642 c 0.2032,-1.8796 1.2954,-2.9718 2.8956,-2.9718 1.5748,0 2.667,0.9906 2.7686,2.9718 z"
         style="font-weight:bold;-inkscape-font-specification:'Geist Bold';fill:#000000"
         id="path359" />
      <path
         d="m 164.16712,119.07042 c 3.4544,0 5.6642,-2.794 5.6642,-7.112 0,-4.318 -2.2098,-7.112 -5.6642,-7.112 -1.8542,0 -3.302,0.9652 -4.0132,2.2352 v -6.35 h -3.81 v 18.034 h 3.6322 l 0.0762,-2.0066 c 0.762,1.4732 2.2098,2.3114 4.1148,2.3114 z m -1.0668,-2.921 c -1.8542,0 -2.9464,-1.5748 -2.9464,-4.191 0,-2.6416 1.0922,-4.191 2.9718,-4.191 1.7018,0 2.794,1.5494 2.794,4.191 0,2.6416 -1.1176,4.191 -2.8194,4.191 z"
         style="font-weight:bold;-inkscape-font-specification:'Geist Bold';fill:#000000"
         id="path361" />
      <path
         d="m 182.09954,118.76562 h 4.1402 l 2.9464,-11.5316 2.9464,11.5316 h 4.1402 l 4.8768,-18.034 h -4.064 l -3.0734,12.7 -3.1242,-12.7 h -3.3782 l -3.1496,12.7 -3.0988,-12.7 h -4.0132 z"
         style="font-weight:bold;-inkscape-font-specification:'Geist Bold';fill:#000000"
         id="path363" />
      <path
         d="m 207.9313,119.07042 c 4.1656,0 6.9088,-2.794 6.9088,-7.112 0,-4.2926 -2.7432,-7.112 -6.9088,-7.112 -4.1656,0 -6.9088,2.8194 -6.9088,7.112 0,4.318 2.7432,7.112 6.9088,7.112 z m 0,-2.921 c -1.905,0 -2.9972,-1.5494 -2.9972,-4.191 0,-2.6416 1.0922,-4.191 2.9972,-4.191 1.905,0 2.9718,1.5494 2.9718,4.191 0,2.6416 -1.0668,4.191 -2.9718,4.191 z"
         style="font-weight:bold;-inkscape-font-specification:'Geist Bold';fill:#000000"
         id="path365" />
      <path
         d="m 217.2785,118.76562 h 3.81 v -7.6454 c 0,-2.032 0.9906,-2.8194 3.1242,-2.8194 h 1.24459 v -3.1496 h -1.24459 c -1.6764,0 -2.6924,0.8128 -3.2512,2.7432 l -0.0762,-2.7432 h -3.6068 z"
         style="font-weight:bold;-inkscape-font-specification:'Geist Bold';fill:#000000"
         id="path367" />
      <path
         d="m 227.56551,118.76562 h 3.81 v -3.8354 l 1.8796,-2.0066 3.7338,5.842 h 4.1656 l -5.4356,-8.001 5.2832,-5.6134 h -4.572 l -5.0546,5.588 v -10.0076 h -3.81 z"
         style="font-weight:bold;-inkscape-font-specification:'Geist Bold';fill:#000000"
         id="path369" />
      <path
         d="m 247.88549,113.07602 h 3.7592 c 0,-1.6002 0.4318,-2.2606 1.6764,-2.9972 2.2606,-1.2954 3.1242,-2.2606 3.1242,-4.4704 0,-3.0226 -2.1844,-5.2832 -6.2738,-5.2832 -4.1656,0 -6.5532,2.413 -6.858,5.715 l 3.9624,0.2032 c 0.1778,-1.8288 1.143,-2.7686 2.8956,-2.7686 1.524,0 2.3876,0.8636 2.3876,2.1336 0,1.143 -0.3302,1.6256 -2.1844,2.5908 -1.8034,0.889 -2.4892,2.159 -2.4892,4.8768 z m -0.1778,5.6896 h 4.1148 v -3.8862 h -4.1148 z"
         style="font-weight:bold;-inkscape-font-specification:'Geist Bold';fill:#000000"
         id="path371" />
    </g>
  </g>
</svg>
